<svg width="810" height="120" viewBox="0 0 810 120" fill="none" xmlns="http://www.w3.org/2000/svg">
<path d="M8.16817e-05 24.6685C8.16817e-05 24.6685 40.0699 25.6376 65.6164 6.21727C91.163 -13.2031 95.168 18.5182 116.706 24.6685C138.243 30.8187 148.345 18.518 174.892 24.6685C201.438 30.819 185.826 41.0696 224.393 43.1198C262.961 45.1701 283.998 10.83 314.551 11.3426C345.104 11.8553 336.589 24.6686 370.649 24.6685C375.362 24.6685 400.184 44.8959 445.364 43.1198C486.723 41.4939 499.672 15.0701 545.038 4.38075C583.671 -4.72238 603.143 18.855 639.202 19.4875C660.055 19.8532 742.349 -0.771825 760.914 4.38107C789.659 12.3594 786.873 24.6685 810 24.6685C810 47.1642 810 120 810 120H0C0 120 0 96.8803 3.67806e-05 71.7653C7.71438e-05 41.1053 8.16817e-05 24.6685 8.16817e-05 24.6685Z" fill="#4D4D4D"/>
</svg>
