<svg width="810" height="130" viewBox="0 0 810 130" fill="none" xmlns="http://www.w3.org/2000/svg">
<path d="M8.16817e-05 36.8731C8.16817e-05 36.8731 40.0699 37.8198 65.6164 18.8486C91.163 -0.122607 110.693 -3.24758 132.231 2.76044C153.768 8.76846 177.81 10.7713 182.819 30.7985C187.828 50.8258 218.381 27.9273 249.936 36.8731C281.491 45.819 283.495 54.397 314.048 54.8977C344.601 55.3985 345.106 49.9574 370.649 36.8732C396.191 23.789 405.107 25.524 450.286 23.789C476.331 22.7888 523.126 58.7645 568.492 48.3224C607.126 39.4298 607.063 3.6446 643.122 4.2624C663.976 4.61968 742.349 12.0211 760.914 17.0549C789.659 24.8487 786.873 36.8731 810 36.8731C810 58.8486 810 130 810 130H0C0 130 0 107.415 3.67806e-05 82.8808C7.71438e-05 52.9299 8.16817e-05 36.8731 8.16817e-05 36.8731Z" fill="#3C3C3C"/>
</svg>
