<svg width="810" height="150" viewBox="0 0 810 150" fill="none" xmlns="http://www.w3.org/2000/svg">
<path d="M8.16817e-05 58.8347C8.16817e-05 58.8347 40.0738 50.8191 65.6164 41.1899C91.1591 31.5606 102.679 63.4196 124.217 69.3011C145.754 75.1826 161.281 49.7738 183.821 41.1899C206.36 32.6059 255.947 -28.2357 295.516 35.4817C335.085 99.1992 304.531 26.6592 335.085 27.1494C365.638 27.6396 359.628 48.2252 376.657 57.0477C393.687 65.8701 403.604 71.7413 448.783 70.0428C474.829 69.0637 508.601 10.9045 553.967 0.682301C592.601 -8.02299 599.55 69.4376 635.609 70.0424C656.463 70.3921 742.349 34.5062 760.914 39.4339C789.659 47.0635 786.873 58.8347 810 58.8347C810 80.3473 810 150 810 150H0C0 150 0 127.891 3.67806e-05 103.873C7.71438e-05 74.5533 8.16817e-05 58.8347 8.16817e-05 58.8347Z" fill="#1E1E1E"/>
</svg>
