<svg width="810" height="150" viewBox="0 0 810 150" fill="none" xmlns="http://www.w3.org/2000/svg">
<path d="M8.16817e-05 58.4181C8.16817e-05 58.4181 40.0738 50.3659 65.6164 40.6927C91.1591 31.0194 105.184 6.70038 126.721 12.6087C148.259 18.5171 162.283 29.6022 184.823 20.9791C207.362 12.356 272.476 16.5662 297.519 16.5662C322.563 16.5662 304.531 40.2002 335.085 40.6927C365.638 41.1851 359.628 47.7602 376.657 56.6229C393.687 65.4857 400.599 27.6276 445.778 25.9214C471.823 24.9377 508.601 10.2689 553.967 0C589.028 12.6087 603.056 31.2223 639.115 31.8299C659.969 32.1812 742.349 33.9785 760.914 38.9287C789.659 46.5932 786.873 58.4181 810 58.4181C810 80.029 810 150 810 150H0C0 150 0 127.79 3.67806e-05 103.662C7.71438e-05 74.2085 8.16817e-05 58.4181 8.16817e-05 58.4181Z" fill="#111111"/>
</svg>
