<svg width="810" height="160" viewBox="0 0 810 160" fill="none" xmlns="http://www.w3.org/2000/svg">
<path d="M8.16817e-05 67.9801C8.16817e-05 67.9801 46.0804 66.1764 62.1084 35.328C78.1364 4.47955 105.684 49.8507 127.222 55.7873C148.76 61.7239 215.877 11.0207 238.416 2.35637C260.955 -6.30801 271.474 10.5916 297.519 25.9281C323.565 41.2646 304.531 49.6751 335.085 50.1699C365.638 50.6647 365.638 35.328 389.68 35.328C413.722 35.328 421.636 4.07075 466.815 2.35637C492.86 1.36804 508.601 19.6006 553.967 9.28261C624.089 -6.66606 662.159 8.67216 698.218 9.28262C719.072 9.63565 742.349 43.4236 760.914 48.3975C789.659 56.0986 786.873 67.9801 810 67.9801C810 89.6944 810 160 810 160H0C0 160 0 137.683 3.67806e-05 113.441C7.71438e-05 83.846 8.16817e-05 67.9801 8.16817e-05 67.9801Z" fill="#2B2B2B"/>
</svg>
