<svg width="810" height="160" viewBox="0 0 810 160" fill="none" xmlns="http://www.w3.org/2000/svg">
<path d="M8.16817e-05 67.9801C8.16817e-05 67.9801 46.0804 66.1764 62.1084 35.328C78.1364 4.47956 127.222 -3.58023 148.76 2.35637C170.297 8.29297 215.877 11.0207 238.416 2.35637C260.955 -6.30801 271.474 10.5916 297.519 25.9281C323.565 41.2646 316.552 16.326 347.106 16.8208C377.659 17.3156 365.638 35.328 389.68 35.328C413.722 35.328 427.145 18.5357 472.324 16.8213C498.37 15.833 532.142 45.6459 577.508 35.328C647.63 19.3793 660.657 34.7175 696.716 35.328C717.569 35.681 742.349 43.4236 760.914 48.3975C789.659 56.0986 786.873 67.9801 810 67.9801C810 89.6944 810 160 810 160H0C0 160 0 137.683 3.67806e-05 113.441C7.71438e-05 83.846 8.16817e-05 67.9801 8.16817e-05 67.9801Z" fill="black"/>
</svg>
